<?xml version="1.0" encoding="UTF-8" standalone="no"?>
<svg
   viewBox="0 0 12.000001 12.000001"
   height="12.000001"
   width="12.000001"
   id="svg2"
   version="1.1"
   sodipodi:docname="archive.svg"
   inkscape:version="1.3.2 (091e20e, 2023-11-25, custom)"
   inkscape:export-filename="..\..\..\..\Pcynlitx.Win.Platform\icons\archive.png"
   inkscape:export-xdpi="500"
   inkscape:export-ydpi="500"
   xmlns:inkscape="http://www.inkscape.org/namespaces/inkscape"
   xmlns:sodipodi="http://sodipodi.sourceforge.net/DTD/sodipodi-0.dtd"
   xmlns="http://www.w3.org/2000/svg"
   xmlns:svg="http://www.w3.org/2000/svg"
   xmlns:rdf="http://www.w3.org/1999/02/22-rdf-syntax-ns#"
   xmlns:cc="http://creativecommons.org/ns#"
   xmlns:dc="http://purl.org/dc/elements/1.1/">
  <sodipodi:namedview
     pagecolor="#ffffff"
     bordercolor="#666666"
     borderopacity="1"
     objecttolerance="10"
     gridtolerance="10"
     guidetolerance="10"
     inkscape:pageopacity="0"
     inkscape:pageshadow="2"
     inkscape:window-width="1920"
     inkscape:window-height="1111"
     id="namedview8"
     showgrid="true"
     inkscape:zoom="17.718349"
     inkscape:cx="-10.525811"
     inkscape:cy="-0.592606"
     inkscape:window-x="-9"
     inkscape:window-y="-9"
     inkscape:window-maximized="1"
     inkscape:current-layer="svg2"
     inkscape:showpageshadow="2"
     inkscape:pagecheckerboard="0"
     inkscape:deskcolor="#d1d1d1">
    <inkscape:grid
       type="xygrid"
       id="grid10"
       originx="2.0000005"
       originy="-25"
       spacingy="1"
       spacingx="1"
       units="px"
       visible="true" />
  </sodipodi:namedview>
  <metadata
     id="metadata8">
    <rdf:RDF>
      <cc:Work
         rdf:about="">
        <dc:format>image/svg+xml</dc:format>
        <dc:type
           rdf:resource="http://purl.org/dc/dcmitype/StillImage" />
        <dc:title />
      </cc:Work>
    </rdf:RDF>
  </metadata>
  <defs
     id="defs6" />
  <rect
     style="fill:#c86464;fill-opacity:1;stroke:none;stroke-width:0.05;stroke-miterlimit:4;stroke-dasharray:none;stroke-opacity:1"
     id="rect819-3"
     width="12"
     height="12"
     x="5e-07"
     y="5e-07"
     ry="0"
     inkscape:export-filename="/home/erkam/PCYNLITX.SETUP.FILES/ICON_DESIGNS/PNG_ICONS/archive.png"
     inkscape:export-xdpi="500"
     inkscape:export-ydpi="500" />
  <ellipse
     style="fill:#ffffff;fill-opacity:1;stroke:none;stroke-width:3.77677"
     id="path1"
     cx="5.9542794"
     cy="5.9824991"
     rx="5.6156473"
     ry="5.5309892" />
  <path
     d="m 9.9996492,2.0455831 c -2.2443125,-2.250557 -5.8834944,-2.250557 -8.1278084,0 -2.24450498,2.250941 -2.24450498,5.8996657 0,8.1506059 2.244314,2.250558 5.8834959,2.250558 8.1278084,0 2.2445038,-2.2509402 2.2445038,-5.8996649 0,-8.1506059 M 8.6178127,10.154886 7.8783277,9.3403448 c -0.5904389,0.38345 -1.2688067,0.593232 -1.9791729,0.593232 -2.092393,0 -3.794932,-1.821384 -3.794932,-4.0048947 h 1.502532 c 0,1.3897157 1.028382,2.4167297 2.2924,2.4167297 0.3141856,0 0.6182167,-0.068 0.8986821,-0.195181 L 6.0426448,7.3183978 H 8.6178127 V 10.154886 M 8.2668424,5.9286821 c 0,-1.316523 -1.0268467,-2.30185 -2.2889496,-2.30185 -0.32683,0 -0.644848,0.06858 -0.937766,0.199985 l 0.805961,0.785342 h -2.592408 v -2.525657 l 0.662088,0.644909 c 0.614384,-0.400355 1.325323,-0.608985 2.062125,-0.608985 2.0893304,0 3.7893741,1.736857 3.7893741,3.806064 H 8.2668424 Z"
     fill="#43a047"
     id="path1-7"
     style="fill:#c86464;fill-opacity:1;stroke:none;stroke-width:0.208083;stroke-dasharray:none;stroke-opacity:1" />
</svg>
