<?xml version="1.0" encoding="UTF-8" standalone="no"?>
<svg
   data-name="Layer 1"
   id="Layer_1"
   viewBox="0 0 60.759264 60.933995"
   version="1.1"
   sodipodi:docname="zoom.svg"
   inkscape:version="1.3.2 (091e20e, 2023-11-25, custom)"
   width="60.759266"
   height="60.933994"
   inkscape:export-filename="..\..\..\..\Project.Test.platform\icons\zoom.png"
   inkscape:export-xdpi="96"
   inkscape:export-ydpi="96"
   xmlns:inkscape="http://www.inkscape.org/namespaces/inkscape"
   xmlns:sodipodi="http://sodipodi.sourceforge.net/DTD/sodipodi-0.dtd"
   xmlns="http://www.w3.org/2000/svg"
   xmlns:svg="http://www.w3.org/2000/svg">
  <sodipodi:namedview
     id="namedview5"
     pagecolor="#ffffff"
     bordercolor="#000000"
     borderopacity="0.25"
     inkscape:showpageshadow="2"
     inkscape:pageopacity="0.0"
     inkscape:pagecheckerboard="0"
     inkscape:deskcolor="#d1d1d1"
     showgrid="true"
     inkscape:zoom="11.446291"
     inkscape:cx="23.588427"
     inkscape:cy="31.320189"
     inkscape:window-width="1920"
     inkscape:window-height="1111"
     inkscape:window-x="-9"
     inkscape:window-y="-9"
     inkscape:window-maximized="1"
     inkscape:current-layer="Layer_1">
    <inkscape:grid
       id="grid5"
       units="px"
       originx="50.25526"
       originy="50.031003"
       spacingx="1"
       spacingy="1"
       empcolor="#0099e5"
       empopacity="0.30196078"
       color="#0099e5"
       opacity="0.14902"
       empspacing="5"
       dotted="false"
       gridanglex="30"
       gridanglez="30"
       visible="true" />
  </sodipodi:namedview>
  <defs
     id="defs1">
    <style
       id="style1">.cls-1{fill:#757575;}.cls-2{fill:#bdbdbd;}.cls-3{fill:#f5f5f5;}</style>
  </defs>
  <title
     id="title1" />
  <rect
     style="fill:#c8c8d7;fill-opacity:1;stroke:none;stroke-width:2.44563;stroke-miterlimit:1;stroke-dasharray:none;stroke-opacity:1"
     id="rect2"
     width="49.999096"
     height="50.008091"
     x="5.4642415"
     y="4.9488344"
     ry="1.8687463" />
  <g
     id="g4"
     transform="matrix(0.05684558,0,0,0.07262893,16.382643,11.842743)"
     style="fill:#69697d;fill-opacity:1">
    <path
       d="m 277.12849,138.42338 c -18.2542,0 -33.0512,11.68618 -33.0512,26.10154 0,14.41535 14.797,26.10153 33.0512,26.10153 h 132.2044 c 18.2509,0 33.0512,-11.68618 33.0512,-26.10153 0,-14.41536 -14.8003,-26.10154 -33.0512,-26.10154 z"
       fill="#000000"
       fill-opacity="0.5"
       id="path1-9"
       style="stroke-width:29.3715;fill:#7d7d91;fill-opacity:1" />
    <path
       d="m 277.12849,373.33704 c -18.2542,0 -33.0512,11.68563 -33.0512,26.10154 0,14.41583 14.797,26.10147 33.0512,26.10147 h 132.2044 c 18.2509,0 33.0512,-11.68564 33.0512,-26.10147 0,-14.41591 -14.8003,-26.10154 -33.0512,-26.10154 z"
       fill="#000000"
       fill-opacity="0.5"
       id="path2-4"
       style="stroke-width:29.3715;fill:#7d7d91;fill-opacity:1" />
    <path
       d="m 277.12849,60.118894 c -18.2542,0 -33.0512,11.68612 -33.0512,26.10147 0,14.415356 14.797,26.101536 33.0512,26.101536 h 264.4091 c 18.2508,0 33.0511,-11.68618 33.0511,-26.101536 0,-14.41535 -14.8003,-26.10147 -33.0511,-26.10147 z"
       fill="#000000"
       fill-opacity="0.8"
       id="path3-4"
       style="stroke-width:29.3715;fill:#7d7d91;fill-opacity:1" />
    <path
       d="m 277.12849,295.03249 c -18.2542,0 -33.0512,11.68563 -33.0512,26.10154 0,14.41583 14.797,26.10147 33.0512,26.10147 h 264.4091 c 18.2508,0 33.0511,-11.68564 33.0511,-26.10147 0,-14.41591 -14.8003,-26.10154 -33.0511,-26.10154 z"
       fill="#000000"
       fill-opacity="0.8"
       id="path4-8"
       style="stroke-width:29.3715;fill:#7d7d91;fill-opacity:1" />
    <path
       d="m -23.754711,34.071644 c -18.2535,0 -33.0511,11.68588 -33.0511,26.10154 V 190.68123 c 0,14.4159 14.7976,26.10154 33.0511,26.10154 H 141.50109 c 18.2538,0 33.0512,-11.68564 33.0512,-26.10154 V 60.173184 c 0,-14.41566 -14.7974,-26.10154 -33.0512,-26.10154 z"
       fill="#000000"
       id="path5"
       style="stroke-width:29.3715;fill:#69697d;fill-opacity:1" />
    <path
       d="m -23.754711,268.87617 c -18.2535,0 -33.0511,11.68563 -33.0511,26.10154 v 130.50756 c 0,14.41585 14.7976,26.10148 33.0511,26.10148 H 141.50109 c 18.2538,0 33.0512,-11.68563 33.0512,-26.10148 V 294.97771 c 0,-14.41591 -14.7974,-26.10154 -33.0512,-26.10154 z"
       fill="#000000"
       id="path6"
       style="stroke-width:29.3715;fill:#69697d;fill-opacity:1" />
  </g>
</svg>
